<svg width="377" height="184" viewBox="0 0 377 184" fill="none" xmlns="http://www.w3.org/2000/svg">
<g style="mix-blend-mode:multiply">
<path fill-rule="evenodd" clip-rule="evenodd" d="M93.6169 41.2003C64.4074 41.2003 41.41 64.3168 41.41 92C41.41 119.683 64.4074 142.8 93.6168 142.8C122.826 142.8 145.824 119.683 145.824 92C145.824 64.3168 122.826 41.2003 93.6169 41.2003ZM0.887192 92C0.8872 41.1912 42.7801 0.67746 93.6169 0.67746C144.454 0.67746 186.347 41.1912 186.347 92C186.347 142.809 144.454 183.323 93.6168 183.323C42.78 183.323 0.887183 142.809 0.887192 92Z" fill="#EEB900"/>
</g>
<g style="mix-blend-mode:multiply">
<path fill-rule="evenodd" clip-rule="evenodd" d="M188.537 41.2003C159.328 41.2003 136.33 64.3168 136.33 92C136.33 119.683 159.328 142.8 188.537 142.8C217.747 142.8 240.744 119.683 240.744 92C240.744 64.3168 217.747 41.2003 188.537 41.2003ZM95.8076 92C95.8076 41.1912 137.7 0.67746 188.537 0.67746C239.374 0.67746 281.267 41.1912 281.267 92C281.267 142.809 239.374 183.323 188.537 183.323C137.7 183.323 95.8076 142.809 95.8076 92Z" fill="#43ABD7"/>
</g>
<g style="mix-blend-mode:multiply">
<path fill-rule="evenodd" clip-rule="evenodd" d="M283.457 41.2003C254.248 41.2003 231.251 64.3168 231.251 92C231.251 119.683 254.248 142.8 283.457 142.8C312.667 142.8 335.664 119.683 335.664 92C335.664 64.3168 312.667 41.2003 283.457 41.2003ZM190.728 92C190.728 41.1912 232.621 0.67746 283.457 0.67746C334.294 0.67746 376.187 41.1912 376.187 92C376.187 142.809 334.294 183.323 283.457 183.323C232.621 183.323 190.728 142.809 190.728 92Z" fill="#FA5A6D"/>
</g>
</svg>
